<?xml version="1.0" encoding="iso-8859-1"?>
<!-- Generator: Adobe Illustrator 18.0.0, SVG Export Plug-In . SVG Version: 6.00 Build 0)  -->
<!DOCTYPE svg PUBLIC "-//W3C//DTD SVG 1.1//EN" "http://www.w3.org/Graphics/SVG/1.1/DTD/svg11.dtd">
<svg version="1.1" id="Capa_1" xmlns="http://www.w3.org/2000/svg" xmlns:xlink="http://www.w3.org/1999/xlink" x="0px" y="0px"
	 viewBox="0 0 490.432 490.432" style="enable-background:new 0 0 490.432 490.432;" xml:space="preserve">
<g id="XMLID_273_">
	<polygon id="XMLID_277_" points="198.569,310.268 293.273,244.602 198.569,179.796 	"/>
	<path id="XMLID_274_" d="M408.807,0H81.624C36.548,0,0,36.539,0,81.624v327.183c0,45.085,36.548,81.625,81.624,81.625h327.183
		c45.076,0,81.625-36.54,81.625-81.625V81.624C490.432,36.539,453.883,0,408.807,0z M353.551,262.408L187.936,377.241
		c-4.17,2.887-9.04,4.354-13.925,4.354c-3.874,0-7.764-0.908-11.32-2.773c-8.05-4.226-13.096-12.549-13.096-21.633V133.229
		c0-9.053,5.014-17.377,13.032-21.602c3.58-1.879,7.485-2.82,11.383-2.82c4.838,0,9.661,1.434,13.797,4.272l165.632,113.364
		c5.932,4.051,9.485,10.761,9.501,17.951C362.965,251.583,359.451,258.313,353.551,262.408z"/>
</g>
<g>
</g>
<g>
</g>
<g>
</g>
<g>
</g>
<g>
</g>
<g>
</g>
<g>
</g>
<g>
</g>
<g>
</g>
<g>
</g>
<g>
</g>
<g>
</g>
<g>
</g>
<g>
</g>
<g>
</g>
</svg>
